<?xml version="1.0" encoding="UTF-8" standalone="no"?>
<!-- Created with Inkscape (http://www.inkscape.org/) -->

<svg
   version="1.1"
   id="svg950"
   width="128"
   height="128"
   viewBox="0 0 128 128"
   xmlns="http://www.w3.org/2000/svg"
   xmlns:svg="http://www.w3.org/2000/svg">
  <defs
     id="defs954" />
  <g
     id="g956">
    <path
       style="fill:#000000;stroke-width:1.33333"
       d="m 32.331209,125.28574 c -0.917834,-0.37027 -2.04452,-3.0229 -2.503744,-5.89474 l -0.834953,-5.22151 H 18.096256 c -6.697088,0 -11.5128595,-0.6166 -12.496256,-1.6 -2.2981969,-2.2982 -2.2981969,-106.5018012 0,-108.7999982 1.1830797,-1.18308 13.678464,-1.6 47.953088,-1.6 53.002742,0 49.113582,-0.996097 49.113582,12.5790112 v 7.420989 h 7.06666 c 3.88667,0 7.78667,0.72 8.66667,1.6 2.2951,2.295103 2.2951,98.504898 0,100.799998 -1.18042,1.18042 -12.45661,1.5724 -43,1.49474 -22.77,-0.0579 -42.150956,-0.40822 -43.068791,-0.77849 z M 94.666667,58.169492 v -48 H 53.333333 12 v 48 47.999998 h 41.333333 41.333334 z m -76.467363,28.70525 c -0.413965,-1.07878 0.164699,-2.87878 1.28592,-4 1.656509,-1.65651 5.971321,-2.03858 23.021841,-2.03858 22.055596,0 26.884227,1.11784 25.084755,5.80719 -0.737543,1.922 -3.792952,2.19281 -24.740655,2.19281 -19.804786,0 -24.028141,-0.33603 -24.651861,-1.96142 z m 1.28592,-12.07717 c -1.121221,-1.12122 -1.699885,-2.92122 -1.28592,-4 1.144987,-2.98379 68.179352,-2.93006 69.325043,0.0556 0.425693,1.10934 0.0334,2.90934 -0.871772,4 -2.484076,2.99313 -64.169687,2.9421 -67.167351,-0.0556 z M 18.713579,59.59048 c -2.178316,-4.07022 -1.79384,-38.084549 0.451548,-39.948055 1.28958,-1.070257 11.6496,-1.414582 35,-1.16326 l 33.168206,0.356994 0.369852,19.81938 c 0.251558,13.480272 -0.120506,20.410224 -1.16326,21.666666 -1.229602,1.481577 -7.9585,1.847287 -33.989606,1.847287 -30.724178,0 -32.530164,-0.13765 -33.83674,-2.579012 z M 80,40.169492 v -14 H 52.666667 25.333333 v 14 14 H 52.666667 80 Z"
       id="path1077" />
  </g>
</svg>
