<?xml version="1.0" encoding="UTF-8" standalone="no"?>
<!-- Created with Inkscape (http://www.inkscape.org/) -->

<svg
   version="1.1"
   id="svg2"
   width="128"
   height="128"
   viewBox="0 0 128 128"
   xml:space="preserve"
   xmlns="http://www.w3.org/2000/svg"
   xmlns:svg="http://www.w3.org/2000/svg"><defs
     id="defs6" /><g
     id="g8"><path
       style="fill:#030303;stroke:none;stroke-width:1.33333"
       d="m 28.792027,17.557426 c -6.271066,1.6532 -10.937333,6.319466 -12.590533,12.590533 -1.5508,5.882 -0.743867,12.635467 -0.743867,18.6656 V 84.81356 c 0,7.1556 -0.814533,15.03387 3.8056,21.08227 4.995467,6.54 12.655734,6.9056 20.194401,6.91773 h 38.66667 c 6.43706,0 13.72266,0.9108 19.99893,-0.74387 6.271072,-1.6532 10.937342,-6.31946 12.590542,-12.59053 1.5508,-5.882 0.74386,-12.63547 0.74386,-18.6656 V 44.813559 c 0,-7.1556 0.81454,-15.033867 -3.8056,-21.082267 -4.99546,-6.54 -12.655732,-6.9056 -20.194402,-6.917733 h -38.66667 c -6.43706,0 -13.72266,-0.9108 -19.998931,0.743867 M 103.45763,38.146892 H 23.457627 c 0.1728,-5.3244 1.079067,-10.3656 6.6924,-12.5288 4.696001,-1.809733 11.029331,-0.804533 15.974271,-0.804533 h 32 c 5.6872,0 13.25226,-1.272133 18.64093,0.804533 5.613342,2.1632 6.519602,7.2044 6.692402,12.5288 m 0,8 V 84.81356 c 0,4.9848 1.04374,11.54667 -2.13786,15.80253 -3.860012,5.1632 -10.851212,4.19707 -16.528812,4.19747 h -42.66666 c -5.6776,-4e-4 -12.668804,0.96573 -16.528804,-4.19747 -3.1816,-4.25586 -2.137867,-10.81773 -2.137867,-15.80253 V 46.146892 h 80.000003 m -33.274672,19.6564 c -7.91933,3.227067 -9.19573,17.695998 -4.40226,24.039068 3.9704,5.254 14.56866,5.64427 20.28493,3.3148 7.91933,-3.22707 9.19573,-17.696001 4.40227,-24.039068 -3.9704,-5.254 -14.56867,-5.644266 -20.28494,-3.3148 m 14.608,7.010267 V 86.14689 H 71.457628 V 72.813559 Z"
       id="path23843" /></g></svg>
