<?xml version="1.0" encoding="UTF-8" standalone="no"?>
<!-- Created with Inkscape (http://www.inkscape.org/) -->

<svg
   version="1.1"
   id="svg2"
   width="128"
   height="128"
   viewBox="0 0 128 128"
   xml:space="preserve"
   xmlns="http://www.w3.org/2000/svg"
   xmlns:svg="http://www.w3.org/2000/svg"><defs
     id="defs6" /><g
     id="g8"><path
       style="fill:#020202;stroke:none;stroke-width:1.33333"
       d="M 17.084745,41.129944 H 113.08475 C 112.72861,24.499036 105.91018,22.116738 94.934837,20.947531 80.660433,19.426873 67.92455,19.445519 54.418079,19.796612 45.075552,20.039466 34.650731,19.37587 26.471545,22.047678 c -7.455066,3.924934 -9.220533,11.3196 -9.3868,19.082267 m 0,8 v 40 c 4e-4,6.787465 -0.564533,14.027865 3.8056,19.748935 5.3124,6.95493 13.594667,6.91466 21.527734,6.91773 15.9992,0.006 32.000933,0.0772 48,-0.001 7.122,-0.0348 14.199201,-0.81346 18.861071,-6.91666 4.37013,-5.72107 3.8052,-12.96147 3.8056,-19.748935 v -40 H 17.084745 m 57.5308,24.804533 c 3.718667,-1.6236 11.963334,-1.701333 14.998,1.333334 3.930934,3.930933 3.367734,16.021338 -2.0596,18.390938 -3.718666,1.6236 -11.963333,1.70133 -14.998,-1.33334 -3.930933,-3.930932 -3.367733,-16.021198 2.0596,-18.390932 z"
       id="path23862" /></g></svg>
