<?xml version="1.0" encoding="UTF-8" standalone="no"?>
<!-- Created with Inkscape (http://www.inkscape.org/) -->

<svg
   version="1.1"
   id="svg2"
   width="128"
   height="128"
   viewBox="0 0 128 128"
   xmlns="http://www.w3.org/2000/svg"
   xmlns:svg="http://www.w3.org/2000/svg">
  <defs
     id="defs6" />
  <g
     id="g8">
    <path
       style="fill:#020202;stroke:none;stroke-width:1.33333"
       d="M 13.665857,17.713515 C 5.7402698,20.680182 5.5159898,29.152182 5.4402298,36.383648 5.2586965,53.712313 5.4006432,71.053913 5.4275632,88.383513 c 0.010533,6.77947 -0.95696,15.980797 5.0213868,20.726527 4.502107,3.57387 11.54384,3.56747 14.906907,-1.4308 1.733333,-2.57613 2.749733,-8.162257 6.7372,-8.162257 5.667733,0 6.6552,11.076127 13.4964,12.401857 8.808133,1.7068 18.889467,0.50307 27.8364,0.46054 4.047733,-0.0193 8.918,0.41013 12.616133,-1.56254 4.387867,-2.34053 4.4152,-9.88186 9.154134,-11.175327 4.452136,-1.21533 5.882266,5.434267 7.634136,8.037727 2.6308,3.91 7.32427,4.7852 11.63747,3.2288 6.81426,-2.45893 8.0152,-9.4676 8.23213,-15.860927 0.49667,-14.6324 0.0815,-29.35613 0.0587,-43.99693 -0.01,-6.10587 0.6454,-13.751663 -3.26817,-18.976935 -4.86625,-6.497265 -15.42688,-4.573813 -36.7184,-5.186266 -3.642134,-0.104766 -9.925113,-0.687388 -14.333642,-1.580181 -2.244441,-1.87144 -1.600782,-6.35115 -5.752758,-7.728353 -3.561676,-1.509959 -24.218247,-1.353777 -31.925866,-1.194533 -5.713947,0.118054 -11.8308,-0.6404 -17.093867,1.3296 m 26.62,26.750398 c 11.9496,-3.178798 16.888267,15.32947 4.947733,18.50587 -11.9496,3.1788 -16.888266,-15.32947 -4.947733,-18.50587 m 39.291067,10.798 c 4.927333,-2.74186 14.9248,-2.29933 20.210936,-0.8216 4.18893,1.1712 6.94093,5.7348 2.15467,8.39814 -4.927344,2.74186 -14.924806,2.29933 -20.21094,0.8216 -4.188933,-1.1712 -6.940933,-5.7348 -2.154666,-8.39814 m -44.8008,15.23454 c 6.933466,-1.4148 16.000266,-1.34427 22.300666,2.22506 4.793867,2.71587 8.479067,10.08107 1.201867,12.2688 -7.4572,2.24187 -24.897333,2.77694 -32.090667,-0.36053 -10.028666,-4.37427 3.7376,-13.1436 8.588134,-14.13333 m 44.8008,6.0988 c 4.927333,-2.74187 14.924933,-2.29934 20.210936,-0.8216 4.18893,1.1712 6.94093,5.7348 2.15467,8.39813 -4.927344,2.742 -14.924806,2.29933 -20.21094,0.8216 -4.188933,-1.1712 -6.940933,-5.7348 -2.154666,-8.39813 z"
       id="path293" />
  </g>
</svg>
