<?xml version="1.0" encoding="UTF-8" standalone="no"?>
<!-- Created with Inkscape (http://www.inkscape.org/) -->

<svg
   version="1.1"
   id="svg2"
   width="128"
   height="128"
   viewBox="0 0 128 128"
   xml:space="preserve"
   xmlns="http://www.w3.org/2000/svg"
   xmlns:svg="http://www.w3.org/2000/svg"><defs
     id="defs6" /><g
     id="g8"><path
       style="fill:#030303;stroke:none;stroke-width:1.33333"
       d="m 12.915398,20.161172 c -7.7957736,3.058266 -8.2017069,11.342533 -8.2866269,18.570933 -0.1983333,16.883733 -0.026627,33.781329 -0.01496,50.666269 0.00468,6.76186 -1.1569333,15.984656 4.0956667,21.237196 5.9807202,5.9808 17.5759202,4.09586 25.2372532,4.09613 h 53.333334 c 8.1876,0 18.600535,1.6164 26.364665,-1.42947 6.77867,-2.6592 8.02067,-9.3808 8.24214,-15.906926 0.49666,-14.6324 0.0815,-29.35613 0.0587,-43.996932 -0.009,-6.105867 0.71212,-14.644498 -2.59698,-19.839844 C 114.92841,28.768799 88.137471,29.745159 78.045471,29.213159 72.426661,27.125218 65.493192,21.644128 61.848771,19.926638 52.013305,18.343925 41.294527,18.633799 31.01041,18.828784 24.96351,18.943432 17.765305,18.258505 12.915438,20.161172 M 111.28007,40.065038 V 104.06503 H 100.6134 V 98.731704 H 89.946731 v 5.333326 H 36.613398 V 98.731704 H 25.946731 v 5.333326 H 15.280065 V 29.398372 l 40.895333,0.05231 15.282133,10.151286 39.822539,0.463066 m -66.445739,6.934667 c -11.655066,3.039067 -6.907733,21.287729 4.829067,18.031329 11.584133,-3.21413 6.939733,-21.100129 -4.829067,-18.031329 m 34.445734,9.065333 V 66.731704 H 100.6134 V 56.065038 H 79.280065 M 25.946731,88.065034 h 42.666667 c -3.640133,-21.3196 -39.026533,-21.3196 -42.666667,0 m 53.333334,-10.66666 v 10.66666 H 100.6134 v -10.66666 z"
       id="path5330" /></g></svg>
