<?xml version="1.0" encoding="UTF-8" standalone="no"?>
<!-- Created with Inkscape (http://www.inkscape.org/) -->

<svg
   version="1.1"
   id="svg2"
   width="128"
   height="128"
   viewBox="0 0 128 128"
   xml:space="preserve"
   xmlns="http://www.w3.org/2000/svg"
   xmlns:svg="http://www.w3.org/2000/svg"><defs
     id="defs6" /><g
     id="g8"><path
       style="fill:#020202;stroke:none;stroke-width:1.33333"
       d="m 29.649717,17.355933 v 10.666666 h 80.000003 v 64 h 10.66666 l -1.3e-4,-49.333333 c -0.002,-6.4116 1.22707,-15.110267 -3.0256,-20.506267 -5.1824,-6.575467 -16.2892,-4.826266 -23.640933,-4.827066 h -64 m -14.32128,23.025733 c -6.1533858,2.9472 -6.8383058,9.565863 -6.9781858,15.642133 -0.28604,12.42587 -0.112814,24.9032 -0.02643,37.332 0.03769,5.42267 -0.28916,11.975331 3.8641188,16.128531 4.98724,4.98733 13.70764,3.86653 20.12844,3.8712 l 40,4e-4 c 6.1828,-6.7e-4 13.9088,1.0596 19.654667,-1.6924 6.153331,-2.9472 6.838271,-9.56573 6.978131,-15.642131 0.286,-12.42587 0.1128,-24.9032 0.0264,-37.332 -0.0376,-5.42267 0.2892,-11.975333 -3.86413,-16.128533 -4.987201,-4.987333 -13.707601,-3.866533 -20.128401,-3.8712 l -40,-4e-4 c -6.1828,6.67e-4 -13.908933,-1.0596 -19.654613,1.6924 M 88.31638,49.355929 V 102.68927 H 18.98305 V 49.355929 Z"
       id="path5353" /></g></svg>
