<?xml version="1.0" encoding="UTF-8" standalone="no"?>
<!-- Created with Inkscape (http://www.inkscape.org/) -->

<svg
   version="1.1"
   id="svg2"
   width="128"
   height="128"
   viewBox="0 0 128 128"
   xml:space="preserve"
   xmlns="http://www.w3.org/2000/svg"
   xmlns:svg="http://www.w3.org/2000/svg"><defs
     id="defs6" /><g
     id="g8"><path
       style="fill:#020202;stroke:none;stroke-width:1.33333"
       d="m 108.83616,26.937853 v 25.333333 15.999995 c 8e-4,5.27494 -0.9036,11.814 1.08013,16.82254 1.2852,3.24506 4.9084,5.1664 7.46307,1.92373 3.18133,-4.03813 2.11827,-11.298 2.12293,-16.0796 0.0112,-11.554531 0.0735,-23.112398 -0.007,-34.666531 -0.0376,-5.422667 0.2892,-11.975334 -3.86413,-16.128534 -4.7228,-4.722933 -12.69374,-3.860266 -18.795073,-3.8704 l -46.666666,-0.0011 c -4.263866,0.0017 -19.153066,-1.802934 -19.153066,5.3332 0,6.876666 13.681466,5.3288 17.819733,5.3328 l 60.000002,5.33e-4 M 14.514878,39.29692 c -6.1533872,2.9472 -6.8383072,9.565866 -6.9781872,15.642133 -0.28604,12.425868 -0.112813,24.903198 -0.02643,37.331998 0.03769,5.42267 -0.28916,11.975339 3.8641202,16.128539 4.987241,4.98733 13.707641,3.86653 20.128441,3.8712 l 40,4e-4 c 6.1828,-6.7e-4 13.9088,1.0596 19.654666,-1.6924 6.153336,-2.9472 6.838266,-9.56574 6.978136,-15.642139 0.286,-12.42587 0.1128,-24.9032 0.0264,-37.331998 -0.0376,-5.422667 0.2892,-11.975333 -3.86414,-16.128533 -4.987196,-4.987334 -13.707596,-3.866534 -20.128396,-3.8712 l -40,-4e-4 c -6.1828,6.66e-4 -13.908933,-1.0596 -19.654613,1.6924 z"
       id="path23816" /></g></svg>
